<?xml version="1.0" encoding="UTF-8" ?>
<!DOCTYPE svg PUBLIC "-//W3C//DTD SVG 1.1//EN" "http://www.w3.org/Graphics/SVG/1.1/DTD/svg11.dtd">
<svg width="512pt" height="512pt" viewBox="0 0 512 512" version="1.1" xmlns="http://www.w3.org/2000/svg">
<g id="#ffffffff">
</g>
<g id="#96cbc9ff">
<path fill="#96cbc9" opacity="1.00" d=" M 123.50 0.00 L 388.47 0.00 C 395.97 13.66 404.28 27.73 417.57 36.55 C 423.10 40.34 429.91 41.15 436.39 42.02 C 443.70 71.03 450.43 100.26 453.99 129.99 C 458.65 164.42 459.85 199.37 456.90 234.00 C 453.43 273.97 443.93 313.58 427.21 350.13 C 399.35 411.92 350.57 463.73 291.17 496.21 C 280.04 502.40 268.50 507.93 256.42 512.00 L 254.79 512.00 C 243.41 507.38 232.01 502.72 221.30 496.67 C 181.68 475.31 146.52 445.55 119.40 409.58 C 91.31 372.63 72.20 329.19 62.42 283.90 C 53.24 241.92 51.65 198.52 55.33 155.79 C 58.39 117.27 66.23 79.32 75.89 41.96 C 82.82 41.16 90.08 40.13 95.83 35.83 C 108.29 26.86 116.74 13.54 123.50 0.00 M 138.39 25.09 C 128.19 41.31 114.73 56.81 96.28 63.59 C 88.08 96.81 82.10 130.62 79.74 164.78 C 76.68 207.59 79.26 251.10 90.29 292.69 C 104.04 345.91 132.82 395.37 173.45 432.55 C 197.75 454.67 225.61 473.18 256.11 485.60 C 279.14 476.32 300.55 463.32 320.19 448.19 C 345.19 428.99 366.81 405.41 384.05 379.03 C 410.01 339.28 425.24 293.08 430.82 246.07 C 438.15 184.98 430.68 122.98 415.91 63.53 C 397.39 56.87 384.07 41.20 373.78 25.07 C 295.32 25.08 216.86 25.04 138.39 25.09 Z" />
<path fill="#96cbc9" opacity="1.00" d=" M 123.39 71.41 C 134.99 64.10 143.12 52.59 149.82 40.87 C 220.74 40.99 291.66 40.79 362.58 40.97 C 368.96 52.46 376.94 63.58 388.07 70.89 C 391.98 73.61 396.50 75.20 401.10 76.32 C 410.21 112.87 416.57 150.24 417.69 187.94 C 418.97 229.45 413.92 271.52 399.68 310.67 C 386.13 348.72 363.59 383.51 334.31 411.34 C 311.47 432.60 285.25 450.75 256.08 462.18 C 238.99 455.59 223.07 446.33 208.03 435.95 C 193.88 425.67 180.27 414.54 168.35 401.69 C 135.98 367.67 113.67 324.56 103.13 278.89 C 92.28 233.16 92.36 185.41 98.80 139.04 C 101.61 117.89 106.17 97.04 111.16 76.31 C 115.44 75.27 119.69 73.87 123.39 71.41 M 234.77 91.78 C 232.49 97.12 232.61 103.09 233.98 108.66 C 221.16 117.30 208.63 126.37 195.75 134.93 C 187.64 127.17 174.43 125.81 165.02 132.00 C 156.59 137.39 152.24 148.36 154.81 158.05 C 156.60 166.64 163.77 173.54 172.12 175.86 C 178.02 177.16 184.34 176.67 189.83 174.08 C 210.36 196.06 230.31 218.59 250.81 240.61 C 250.84 276.91 250.94 313.21 250.76 349.51 C 246.79 351.08 242.98 353.05 239.62 355.72 C 227.24 347.32 215.31 338.25 203.15 329.54 C 204.17 324.78 204.66 319.72 203.10 315.02 C 201.35 308.86 196.78 303.78 191.27 300.68 C 185.46 297.39 178.31 297.20 172.01 299.05 C 162.31 302.10 155.39 311.86 155.41 321.99 C 154.98 334.59 166.20 346.75 179.04 346.20 C 185.47 346.72 191.53 344.02 196.48 340.10 C 208.49 349.20 220.90 357.77 232.91 366.86 C 231.91 372.14 231.70 377.79 234.14 382.72 C 237.54 391.12 245.96 396.88 254.88 397.71 C 264.95 398.57 275.03 392.25 278.95 383.01 C 281.57 377.60 281.11 371.43 280.02 365.70 C 292.67 356.98 305.32 348.28 317.92 339.50 C 323.42 344.36 330.74 346.98 338.10 346.05 C 352.64 345.49 363.42 328.93 358.77 315.33 C 356.93 308.17 351.39 302.26 344.59 299.51 C 337.56 296.89 329.44 297.40 322.88 301.09 C 303.09 278.98 282.72 257.38 262.98 235.22 C 263.09 198.47 262.99 161.72 263.04 124.97 C 267.08 123.31 270.91 121.20 274.53 118.76 C 286.55 127.49 298.63 136.14 310.59 144.95 C 309.73 150.78 309.31 156.97 311.75 162.49 C 315.79 171.21 325.33 177.36 335.04 176.49 C 344.46 176.65 352.99 170.01 356.50 161.51 C 359.27 154.37 358.81 145.83 354.60 139.34 C 349.74 131.50 340.15 126.71 330.96 128.18 C 325.92 128.79 321.47 131.39 317.37 134.21 C 305.26 125.23 292.82 116.70 280.92 107.46 C 282.14 100.68 281.65 93.32 277.50 87.58 C 272.24 79.90 262.26 75.24 253.00 77.10 C 244.98 78.47 237.69 84.12 234.77 91.78 Z" />
<path fill="#96cbc9" opacity="1.00" d=" M 257.21 89.32 C 263.30 89.02 268.66 93.98 269.01 100.02 C 269.83 106.42 264.28 112.39 258.04 112.86 C 252.36 113.27 247.11 108.90 245.58 103.59 C 243.85 96.61 249.90 88.90 257.21 89.32 Z" />
<path fill="#96cbc9" opacity="1.00" d=" M 208.49 141.33 C 219.41 134.05 229.94 126.18 240.98 119.08 C 243.98 121.46 247.32 123.36 250.86 124.82 C 250.78 157.07 250.94 189.33 250.78 221.58 C 233.22 203.12 216.20 184.12 199.11 165.21 C 200.88 162.05 202.38 158.64 202.44 154.96 C 202.78 151.93 202.02 148.82 202.63 145.84 C 204.31 144.02 206.47 142.73 208.49 141.33 Z" />
<path fill="#96cbc9" opacity="1.00" d=" M 176.42 140.48 C 183.52 138.97 190.86 145.83 190.13 153.02 C 189.92 160.01 182.33 165.80 175.54 163.65 C 168.35 162.25 164.50 153.26 167.91 146.92 C 169.43 143.48 172.93 141.44 176.42 140.48 Z" />
<path fill="#96cbc9" opacity="1.00" d=" M 331.39 140.54 C 339.02 138.59 347.08 146.10 345.80 153.84 C 344.90 159.09 340.58 163.79 335.08 164.08 C 327.41 165.24 320.39 156.94 322.44 149.58 C 323.60 145.29 327.12 141.77 331.39 140.54 Z" />
<path fill="#96cbc9" opacity="1.00" d=" M 263.10 254.34 C 280.24 272.76 297.18 291.38 314.06 310.04 C 310.93 315.72 310.94 322.29 311.56 328.57 C 301.45 335.74 291.18 342.69 281.03 349.81 C 278.42 351.58 276.00 353.77 272.99 354.82 C 269.72 352.97 266.52 350.97 263.02 349.57 C 263.09 317.83 262.93 286.08 263.10 254.34 Z" />
<path fill="#96cbc9" opacity="1.00" d=" M 177.26 310.36 C 184.60 308.47 192.54 315.50 191.71 323.01 C 191.13 330.73 181.45 336.96 174.54 332.46 C 168.67 329.82 166.30 321.95 169.43 316.41 C 171.00 313.34 173.99 311.27 177.26 310.36 Z" />
<path fill="#96cbc9" opacity="1.00" d=" M 333.25 310.29 C 339.83 309.02 346.82 314.21 347.25 320.99 C 348.02 328.24 341.05 334.71 333.93 333.89 C 328.44 332.79 323.35 327.91 323.74 322.02 C 323.32 316.35 328.00 311.56 333.25 310.29 Z" />
<path fill="#96cbc9" opacity="1.00" d=" M 252.28 362.23 C 259.52 359.01 268.45 365.21 268.41 372.99 C 268.87 380.05 261.77 386.07 254.91 385.17 C 248.73 384.51 243.95 378.14 244.73 372.04 C 245.06 367.65 248.36 363.94 252.28 362.23 Z" />
</g>
<g id="#226fa0ff">
<path fill="#226fa0" opacity="1.00" d=" M 234.77 91.78 C 237.69 84.12 244.98 78.47 253.00 77.10 C 262.26 75.24 272.24 79.90 277.50 87.58 C 281.65 93.32 282.14 100.68 280.92 107.46 C 292.82 116.70 305.26 125.23 317.37 134.21 C 321.47 131.39 325.92 128.79 330.96 128.18 C 340.15 126.71 349.74 131.50 354.60 139.34 C 358.81 145.83 359.27 154.37 356.50 161.51 C 352.99 170.01 344.46 176.65 335.04 176.49 C 325.33 177.36 315.79 171.21 311.75 162.49 C 309.31 156.97 309.73 150.78 310.59 144.95 C 298.63 136.14 286.55 127.49 274.53 118.76 C 270.91 121.20 267.08 123.31 263.04 124.97 C 262.99 161.72 263.09 198.47 262.98 235.22 C 282.72 257.38 303.09 278.98 322.88 301.09 C 329.44 297.40 337.56 296.89 344.59 299.51 C 351.39 302.26 356.93 308.17 358.77 315.33 C 363.42 328.93 352.64 345.49 338.10 346.05 C 330.74 346.98 323.42 344.36 317.92 339.50 C 305.32 348.28 292.67 356.98 280.02 365.70 C 281.11 371.43 281.57 377.60 278.95 383.01 C 275.03 392.25 264.95 398.57 254.88 397.71 C 245.96 396.88 237.54 391.12 234.14 382.72 C 231.70 377.79 231.91 372.14 232.91 366.86 C 220.90 357.77 208.49 349.20 196.48 340.10 C 191.53 344.02 185.47 346.72 179.04 346.20 C 166.20 346.75 154.98 334.59 155.41 321.99 C 155.39 311.86 162.31 302.10 172.01 299.05 C 178.31 297.20 185.46 297.39 191.27 300.68 C 196.78 303.78 201.35 308.86 203.10 315.02 C 204.66 319.72 204.17 324.78 203.15 329.54 C 215.31 338.25 227.24 347.32 239.62 355.72 C 242.98 353.05 246.79 351.08 250.76 349.51 C 250.94 313.21 250.84 276.91 250.81 240.61 C 230.31 218.59 210.36 196.06 189.83 174.08 C 184.34 176.67 178.02 177.16 172.12 175.86 C 163.77 173.54 156.60 166.64 154.81 158.05 C 152.24 148.36 156.59 137.39 165.02 132.00 C 174.43 125.81 187.64 127.17 195.75 134.93 C 208.63 126.37 221.16 117.30 233.98 108.66 C 232.61 103.09 232.49 97.12 234.77 91.78 M 257.21 89.32 C 249.90 88.90 243.85 96.61 245.58 103.59 C 247.11 108.90 252.36 113.27 258.04 112.86 C 264.28 112.39 269.83 106.42 269.01 100.02 C 268.66 93.98 263.30 89.02 257.21 89.32 M 208.49 141.33 C 206.47 142.73 204.31 144.02 202.63 145.84 C 202.02 148.82 202.78 151.93 202.44 154.96 C 202.38 158.64 200.88 162.05 199.11 165.21 C 216.20 184.12 233.22 203.12 250.78 221.58 C 250.94 189.33 250.78 157.07 250.86 124.82 C 247.32 123.36 243.98 121.46 240.98 119.08 C 229.94 126.18 219.41 134.05 208.49 141.33 M 176.42 140.48 C 172.93 141.44 169.43 143.48 167.91 146.92 C 164.50 153.26 168.35 162.25 175.54 163.65 C 182.33 165.80 189.92 160.01 190.13 153.02 C 190.86 145.83 183.52 138.97 176.42 140.48 M 331.39 140.54 C 327.12 141.77 323.60 145.29 322.44 149.58 C 320.39 156.94 327.41 165.24 335.08 164.08 C 340.58 163.79 344.90 159.09 345.80 153.84 C 347.08 146.10 339.02 138.59 331.39 140.54 M 263.10 254.34 C 262.93 286.08 263.09 317.83 263.02 349.57 C 266.52 350.97 269.72 352.97 272.99 354.82 C 276.00 353.77 278.42 351.58 281.03 349.81 C 291.18 342.69 301.45 335.74 311.56 328.57 C 310.94 322.29 310.93 315.72 314.06 310.04 C 297.18 291.38 280.24 272.76 263.10 254.34 M 177.26 310.36 C 173.99 311.27 171.00 313.34 169.43 316.41 C 166.30 321.95 168.67 329.82 174.54 332.46 C 181.45 336.96 191.13 330.73 191.71 323.01 C 192.54 315.50 184.60 308.47 177.26 310.36 M 333.25 310.29 C 328.00 311.56 323.32 316.35 323.74 322.02 C 323.35 327.91 328.44 332.79 333.93 333.89 C 341.05 334.71 348.02 328.24 347.25 320.99 C 346.82 314.21 339.83 309.02 333.25 310.29 M 252.28 362.23 C 248.36 363.94 245.06 367.65 244.73 372.04 C 243.95 378.14 248.73 384.51 254.91 385.17 C 261.77 386.07 268.87 380.05 268.41 372.99 C 268.45 365.21 259.52 359.01 252.28 362.23 Z" />
</g>
</svg>
